<svg width="81" height="24" viewBox="0 0 81 24" fill="none" xmlns="http://www.w3.org/2000/svg">
<path d="M10.1497 1.76031H14.0197L23.2597 23.0003H17.9797L16.1497 18.5003H7.89973L6.12973 23.0003H0.969727L10.1497 1.76031ZM11.9497 7.94031L9.36973 14.5403H14.5597L11.9497 7.94031Z" fill="#01996D"/>
<path d="M24.8861 0.320312H29.3861V23.0003H24.8861V0.320312Z" fill="#01996D"/>
<path d="M32.679 8.42031H37.179V23.0003H32.679V8.42031ZM32.319 3.83031C32.319 3.11031 32.569 2.50031 33.069 2.00031C33.589 1.48031 34.209 1.22031 34.929 1.22031C35.649 1.22031 36.259 1.48031 36.759 2.00031C37.279 2.50031 37.539 3.11031 37.539 3.83031C37.539 4.55031 37.279 5.17031 36.759 5.69031C36.259 6.19031 35.649 6.44031 34.929 6.44031C34.209 6.44031 33.589 6.19031 33.069 5.69031C32.569 5.17031 32.319 4.55031 32.319 3.83031Z" fill="#01996D"/>
<path d="M38.882 8.42031H43.742L47.432 18.3203H47.492L50.912 8.42031H55.442L49.682 23.0003H44.912L38.882 8.42031Z" fill="#01996D"/>
<path d="M57.1419 8.42031H61.6419V23.0003H57.1419V8.42031ZM56.7819 3.83031C56.7819 3.11031 57.0319 2.50031 57.5319 2.00031C58.0519 1.48031 58.6719 1.22031 59.3919 1.22031C60.1119 1.22031 60.7219 1.48031 61.2219 2.00031C61.7419 2.50031 62.0019 3.11031 62.0019 3.83031C62.0019 4.55031 61.7419 5.17031 61.2219 5.69031C60.7219 6.19031 60.1119 6.44031 59.3919 6.44031C58.6719 6.44031 58.0519 6.19031 57.5319 5.69031C57.0319 5.17031 56.7819 4.55031 56.7819 3.83031Z" fill="#01996D"/>
<path d="M64.3349 15.7103C64.3349 14.5503 64.5449 13.5003 64.9649 12.5603C65.3849 11.6203 65.9549 10.8203 66.6749 10.1603C67.4149 9.48031 68.2749 8.96031 69.2549 8.60031C70.2549 8.24031 71.3149 8.06031 72.4349 8.06031C73.5549 8.06031 74.6049 8.24031 75.5849 8.60031C76.5849 8.96031 77.4449 9.48031 78.1649 10.1603C78.9049 10.8203 79.4849 11.6203 79.9049 12.5603C80.3249 13.5003 80.5349 14.5503 80.5349 15.7103C80.5349 16.8703 80.3249 17.9203 79.9049 18.8603C79.4849 19.8003 78.9049 20.6103 78.1649 21.2903C77.4449 21.9503 76.5849 22.4603 75.5849 22.8203C74.6049 23.1803 73.5549 23.3603 72.4349 23.3603C71.3149 23.3603 70.2549 23.1803 69.2549 22.8203C68.2749 22.4603 67.4149 21.9503 66.6749 21.2903C65.9549 20.6103 65.3849 19.8003 64.9649 18.8603C64.5449 17.9203 64.3349 16.8703 64.3349 15.7103ZM68.8349 15.7103C68.8349 16.8103 69.1449 17.7003 69.7649 18.3803C70.4049 19.0603 71.2949 19.4003 72.4349 19.4003C73.5749 19.4003 74.4549 19.0603 75.0749 18.3803C75.7149 17.7003 76.0349 16.8103 76.0349 15.7103C76.0349 14.6103 75.7149 13.7203 75.0749 13.0403C74.4549 12.3603 73.5749 12.0203 72.4349 12.0203C71.2949 12.0203 70.4049 12.3603 69.7649 13.0403C69.1449 13.7203 68.8349 14.6103 68.8349 15.7103Z" fill="#01996D"/>
</svg>
