<svg width="82" height="82" viewBox="0 0 82 82" fill="none" xmlns="http://www.w3.org/2000/svg">
<path d="M41.3685 0.406982C19.0778 0.406982 0.945312 18.5412 0.945312 40.8302C0.945312 63.1191 19.0778 81.2534 41.3685 81.2534C63.6592 81.2534 81.7917 63.1191 81.7917 40.8302C81.7917 18.5412 63.6592 0.406982 41.3685 0.406982ZM41.3685 77.8848C20.9365 77.8848 4.31386 61.2622 4.31386 40.8302C4.31386 20.3981 20.9365 3.77553 41.3685 3.77553C61.8005 3.77553 78.4232 20.3981 78.4232 40.8302C78.4232 61.2622 61.8005 77.8848 41.3685 77.8848Z" fill="white"/>
<path d="M57.4414 39.414L33.8612 24.2553C33.3447 23.9181 32.677 23.9 32.144 24.1927C31.6012 24.4888 31.2656 25.0547 31.2656 25.6715V55.9889C31.2656 56.6057 31.6012 57.1716 32.144 57.4676C32.394 57.6042 32.6736 57.6732 32.95 57.6732C33.2658 57.6732 33.5849 57.5843 33.8612 57.4051L57.4414 42.2464C57.9217 41.9372 58.2145 41.4026 58.2145 40.8302C58.2145 40.2578 57.9217 39.7233 57.4414 39.414ZM34.6342 52.9031V28.7572L53.4149 40.8302L34.6342 52.9031Z" fill="white"/>
</svg>
